<svg width="26" height="26" viewBox="0 0 26 26" fill="none" xmlns="http://www.w3.org/2000/svg">
<path fill-rule="evenodd" clip-rule="evenodd" d="M2 7.5V18.5C2 18.5041 1.99998 18.5222 2.02318 18.5599C2.04908 18.602 2.10369 18.6666 2.20557 18.7366C2.41342 18.8795 2.75553 19 3.18182 19H22.8182C23.2445 19 23.5866 18.8795 23.7944 18.7366C23.8963 18.6666 23.9509 18.602 23.9768 18.5599C24 18.5222 24 18.5043 24 18.5002V7.5C24 7.49589 24 7.47784 23.9768 7.44013C23.9509 7.39803 23.8963 7.33343 23.7944 7.26338C23.5866 7.12048 23.2445 7 22.8182 7H3.18182C2.75553 7 2.41342 7.12048 2.20557 7.26338C2.10369 7.33343 2.04908 7.39803 2.02318 7.44013C1.99998 7.47784 2 7.49589 2 7.5ZM1.07251 5.6153C1.65432 5.2153 2.40313 5 3.18182 5H22.8182C23.5969 5 24.3457 5.2153 24.9275 5.6153C25.5049 6.01225 26 6.66168 26 7.5V18.5C26 19.3383 25.5049 19.9878 24.9275 20.3847C24.3457 20.7847 23.5969 21 22.8182 21H3.18182C2.40313 21 1.65432 20.7847 1.07251 20.3847C0.49513 19.9878 0 19.3383 0 18.5V7.5C0 6.66168 0.49513 6.01225 1.07251 5.6153Z" fill="black"/>
<path d="M9.7793 8.11133H11.5571V18.778H9.7793V8.11133Z" fill="black"/>
<path fill-rule="evenodd" clip-rule="evenodd" d="M13.7793 10H9.7793V8H13.7793C15.5589 8 17.0015 9.44264 17.0015 11.2222C17.0015 13.0018 15.5589 14.4444 13.7793 14.4444H9.7793V12.4444H13.7793C14.4543 12.4444 15.0015 11.8972 15.0015 11.2222C15.0015 10.5472 14.4543 10 13.7793 10Z" fill="black"/>
<path d="M8 15.2222H15.1111V16.9999H8V15.2222Z" fill="black"/>
</svg>
