<svg width="20" height="20" viewBox="0 0 20 20" fill="none" xmlns="http://www.w3.org/2000/svg">
<g clip-path="url(#clip0_1570_8297)">
<path d="M7.62565 17.9166C8.06288 17.9166 8.41732 17.5621 8.41732 17.1249C8.41732 16.6877 8.06288 16.3333 7.62565 16.3333C7.18843 16.3333 6.83398 16.6877 6.83398 17.1249C6.83398 17.5621 7.18843 17.9166 7.62565 17.9166Z" stroke="black" stroke-width="2" stroke-linecap="round" stroke-linejoin="round"/>
<path d="M16.3327 17.9166C16.7699 17.9166 17.1243 17.5621 17.1243 17.1249C17.1243 16.6877 16.7699 16.3333 16.3327 16.3333C15.8955 16.3333 15.541 16.6877 15.541 17.1249C15.541 17.5621 15.8955 17.9166 16.3327 17.9166Z" stroke="black" stroke-width="2" stroke-linecap="round" stroke-linejoin="round"/>
<path d="M1.29102 1.29175H4.45768L6.57935 11.8922C6.65174 12.2566 6.85003 12.584 7.13949 12.8171C7.42895 13.0501 7.79115 13.1739 8.16268 13.1667H15.8577C16.2292 13.1739 16.5914 13.0501 16.8809 12.8171C17.1703 12.584 17.3686 12.2566 17.441 11.8922L18.7077 5.25008H5.24935" stroke="black" stroke-width="2" stroke-linecap="round" stroke-linejoin="round"/>
</g>
<defs>
<clipPath id="clip0_1570_8297">
<rect width="19" height="19" fill="white" transform="translate(0.5 0.5)"/>
</clipPath>
</defs>
</svg>
